<svg version="1.1" id="Layer_1" xmlns="http://www.w3.org/2000/svg" xmlns:xlink="http://www.w3.org/1999/xlink" x="0px" y="0px"
	 width="100%" viewBox="0 0 500 200" enable-background="new 0 0 500 200" xml:space="preserve">
<path fill="#000000" opacity="1.000000" stroke="none" 
	d="
M307.000000,201.000000 
	C204.666687,201.000000 102.833366,201.000000 1.000041,201.000000 
	C1.000027,134.333359 1.000027,67.666725 1.000014,1.000068 
	C167.666611,1.000045 334.333221,1.000045 500.999878,1.000023 
	C500.999908,67.666595 500.999908,134.333191 500.999939,200.999893 
	C436.500000,201.000000 372.000000,201.000000 307.000000,201.000000 
M347.240112,117.320839 
	C357.542023,100.328583 368.360992,83.621742 377.955841,66.239189 
	C383.902100,55.466625 388.304504,43.788975 392.730255,32.260529 
	C394.160645,28.534569 394.585419,23.272524 390.664215,20.510258 
	C386.519318,17.590366 381.315002,17.956665 377.221893,21.069525 
	C373.875458,23.614519 370.870514,26.826241 368.362549,30.221333 
	C349.845764,55.287884 338.124908,83.015587 335.963593,114.407951 
	C335.876862,115.667397 335.624573,117.162170 334.879242,118.088570 
	C330.763000,123.204765 326.591522,128.290863 322.142975,133.114288 
	C321.151031,134.189835 318.051971,135.042725 317.521332,134.482956 
	C316.211945,133.101807 314.949646,130.707535 315.215851,128.955643 
	C317.204834,115.864189 320.926147,103.274544 326.812988,91.334503 
	C327.579742,89.779305 327.542511,86.770126 326.533325,85.686905 
	C325.470734,84.546364 322.607208,84.267227 320.869934,84.774345 
	C318.599487,85.437096 316.662292,87.241455 314.406494,88.665268 
	C310.724701,85.262589 306.189301,85.160629 301.386230,86.878670 
	C282.507050,93.631676 271.556274,107.880516 266.276825,126.321800 
	C264.052429,134.091660 260.659027,139.679169 253.582306,142.983673 
	C251.997971,143.723480 249.882797,143.326431 248.012009,143.452774 
	C247.946869,141.792023 247.628601,140.091385 247.882370,138.480881 
	C248.181686,136.581253 248.855331,134.711349 249.575119,132.911926 
	C254.471146,120.672180 259.560394,108.506432 264.202118,96.171867 
	C264.877441,94.377350 264.190582,90.622879 262.908875,89.875008 
	C260.936401,88.724045 257.128479,88.313004 255.475204,89.501709 
	C251.561600,92.315598 248.300476,96.117722 245.081528,99.788612 
	C242.932602,102.239265 241.513992,105.101639 245.162628,107.783028 
	C245.680420,108.163536 246.101486,109.421265 245.864761,109.969772 
	C242.840042,116.978233 240.634109,124.590652 236.348434,130.746552 
	C229.646820,140.372665 219.628876,146.120285 208.188843,148.917084 
	C204.503006,149.818161 200.301575,151.040726 196.886002,150.106186 
	C189.977280,148.215866 188.104309,142.212509 190.524719,133.938690 
	C194.277313,121.110909 203.456711,112.657028 213.771851,105.201286 
	C215.272736,104.116463 217.641815,104.232834 220.549438,103.583336 
	C219.048737,106.692474 217.566269,108.651711 217.220673,110.794334 
	C216.878845,112.913551 216.987900,116.501266 218.153915,117.134521 
	C219.822937,118.040977 223.575653,117.696854 224.762589,116.378159 
	C227.408752,113.438217 229.533112,109.758224 230.938217,106.028709 
	C233.740540,98.590660 228.602097,92.066284 220.923431,93.111641 
	C209.461334,94.672066 199.858490,100.224609 192.094208,108.522957 
	C184.726562,116.397446 180.011261,125.884277 178.201569,136.639511 
	C175.212097,154.406250 189.564743,164.501968 203.783936,161.219299 
	C215.020584,158.625198 224.666595,153.333008 233.625381,146.407379 
	C237.424576,152.140961 241.539627,155.591904 246.420837,155.916016 
	C255.082565,156.491196 261.225830,150.963364 267.802765,146.180756 
	C270.575592,150.071655 274.447937,152.149994 278.969666,150.857224 
	C282.764923,149.772125 286.808167,148.128952 289.681427,145.551163 
	C295.102295,140.687790 299.760315,134.974197 304.639709,129.717056 
	C303.520172,134.351440 305.935089,142.402878 309.207672,144.659561 
	C313.618988,147.701462 319.577972,147.616043 324.671173,143.709366 
	C329.024323,140.370346 332.889008,136.394455 336.909546,132.754730 
	C341.737640,141.204620 345.012543,143.426315 353.976410,141.884064 
	C365.871582,139.837479 374.566772,132.649307 380.034668,122.156525 
	C381.397552,119.541161 379.829346,115.398392 379.608368,111.957664 
	C378.978912,111.890877 378.349487,111.824089 377.720062,111.757301 
	C373.245636,116.556229 368.881744,121.464699 364.266266,126.123886 
	C359.464661,130.970947 355.111755,131.635498 350.390167,129.122375 
	C345.457794,126.497108 347.432526,122.007851 347.240112,117.320839 
M464.934723,18.312119 
	C465.236328,16.369682 466.349945,13.137502 465.690155,12.722093 
	C463.549530,11.374384 460.670013,10.223635 458.233276,10.483093 
	C443.540771,12.047510 431.435760,19.481829 420.701904,28.943598 
	C406.396851,41.553345 394.512543,56.193012 387.401062,74.173012 
	C382.389099,86.844803 378.226624,99.578377 380.888550,113.697205 
	C383.556061,127.845535 396.915802,135.225754 405.924286,133.810577 
	C419.232727,131.719879 430.689453,125.240967 439.794922,115.498550 
	C447.829437,106.901985 455.496582,97.798393 462.145966,88.108932 
	C472.353058,73.235260 479.659729,56.790298 482.757660,38.914646 
	C483.715179,33.389660 484.667053,27.042257 478.994476,22.328066 
	C474.808319,18.849131 470.194489,20.459047 465.727722,20.008474 
	C465.310516,19.966391 464.955231,19.310720 464.934723,18.312119 
M114.406181,58.001118 
	C109.853416,58.535309 105.254166,58.818012 100.756325,59.649338 
	C85.263580,62.512821 71.434837,69.438118 58.584278,78.196312 
	C48.656921,84.962212 39.294186,92.575249 35.615761,104.846855 
	C33.845104,110.753944 35.397747,120.032066 42.025490,123.840202 
	C50.917259,128.949188 60.593273,129.528732 70.206886,131.000381 
	C77.310135,132.087753 84.531807,132.683380 91.487061,134.376007 
	C98.340645,136.043884 99.415718,140.383774 94.168907,145.097900 
	C88.960289,149.777695 83.402344,154.330261 77.316147,157.712341 
	C67.414848,163.214493 56.473022,165.943420 45.131798,166.927551 
	C38.914467,167.467056 32.726971,164.243149 31.307150,159.486115 
	C27.371801,160.866791 24.355951,162.866531 23.932238,167.654739 
	C23.478165,172.786011 25.488577,176.971329 29.796316,178.686798 
	C34.674919,180.629593 40.248055,181.954773 45.435692,181.718079 
	C52.360027,181.402145 59.319862,179.749741 66.059486,177.917435 
	C82.742653,173.381821 98.078659,166.328598 108.646088,151.811523 
	C113.721397,144.839294 115.263634,134.642960 107.486824,127.918556 
	C100.659294,122.014992 92.528084,119.487106 83.920586,118.017014 
	C75.071266,116.505638 66.107697,115.530952 57.366180,113.558754 
	C49.092316,111.692062 47.932270,107.168304 54.229485,101.448418 
	C61.385571,94.948387 68.702248,88.466034 76.703331,83.100731 
	C84.509567,77.866096 93.091530,73.596870 103.299530,72.291840 
	C102.372169,74.148621 101.365425,75.408134 101.202217,76.768822 
	C101.100922,77.613327 102.514191,79.498817 102.848053,79.410271 
	C110.817848,77.296692 118.882294,75.365479 126.549866,72.414574 
	C128.371597,71.713463 129.530548,67.527824 129.740036,64.846954 
	C130.000626,61.512383 126.944008,59.895424 124.085678,59.165024 
	C121.251732,58.440865 118.252663,58.362869 114.406181,58.001118 
M141.190414,167.952850 
	C154.012817,160.866028 162.472549,149.676193 168.831543,137.004547 
	C172.278732,130.135269 174.302444,122.475853 176.344040,115.002335 
	C177.830154,109.562241 173.997528,105.207191 168.527847,104.970634 
	C167.264557,104.916000 165.700043,104.872780 164.817184,104.155724 
	C160.562271,100.699890 156.032700,101.450447 151.913620,103.691765 
	C147.373337,106.162247 142.794922,108.961792 139.106033,112.522362 
	C128.405121,122.851112 121.237350,135.303925 119.101639,150.234909 
	C118.196785,156.560776 120.297806,168.181686 127.694229,169.075180 
	C131.838867,169.575836 136.173035,168.507339 141.190414,167.952850 
M271.349548,76.112381 
	C273.489807,72.909271 276.151825,69.927292 277.628540,66.442963 
	C279.212524,62.705536 276.374115,59.599472 272.276398,60.039230 
	C266.758179,60.631424 264.212097,64.670921 263.025085,69.382828 
	C262.433380,71.731590 262.456848,75.166740 263.802032,76.757759 
	C264.763184,77.894608 268.386414,76.780785 271.349548,76.112381 
z"/>
<path fill="#1D77D2" opacity="1.000000" stroke="none" 
	d="
M347.141754,117.726349 
	C347.432526,122.007851 345.457794,126.497108 350.390167,129.122375 
	C355.111755,131.635498 359.464661,130.970947 364.266266,126.123886 
	C368.881744,121.464699 373.245636,116.556229 377.720062,111.757301 
	C378.349487,111.824089 378.978912,111.890877 379.608368,111.957664 
	C379.829346,115.398392 381.397552,119.541161 380.034668,122.156525 
	C374.566772,132.649307 365.871582,139.837479 353.976410,141.884064 
	C345.012543,143.426315 341.737640,141.204620 336.909546,132.754730 
	C332.889008,136.394455 329.024323,140.370346 324.671173,143.709366 
	C319.577972,147.616043 313.618988,147.701462 309.207672,144.659561 
	C305.935089,142.402878 303.520172,134.351440 304.639709,129.717056 
	C299.760315,134.974197 295.102295,140.687790 289.681427,145.551163 
	C286.808167,148.128952 282.764923,149.772125 278.969666,150.857224 
	C274.447937,152.149994 270.575592,150.071655 267.802765,146.180756 
	C261.225830,150.963364 255.082565,156.491196 246.420837,155.916016 
	C241.539627,155.591904 237.424576,152.140961 233.626831,146.410309 
	C224.666595,153.333008 215.020584,158.625198 203.783936,161.219299 
	C189.564743,164.501968 175.212097,154.406250 178.201569,136.639511 
	C180.011261,125.884277 184.726562,116.397446 192.094208,108.522957 
	C199.858490,100.224609 209.461334,94.672066 220.923431,93.111641 
	C228.602097,92.066284 233.740540,98.590660 230.938217,106.028709 
	C229.533112,109.758224 227.408752,113.438217 224.762589,116.378159 
	C223.575653,117.696854 219.822937,118.040977 218.153915,117.134521 
	C216.987900,116.501266 216.878845,112.913551 217.220673,110.794334 
	C217.566269,108.651711 219.048737,106.692474 220.549438,103.583336 
	C217.641815,104.232834 215.272736,104.116463 213.771851,105.201286 
	C203.456711,112.657028 194.277313,121.110909 190.524719,133.938690 
	C188.104309,142.212509 189.977280,148.215866 196.886002,150.106186 
	C200.301575,151.040726 204.503006,149.818161 208.188843,148.917084 
	C219.628876,146.120285 229.646820,140.372665 236.348434,130.746552 
	C240.634109,124.590652 242.840042,116.978233 245.864761,109.969772 
	C246.101486,109.421265 245.680420,108.163536 245.162628,107.783028 
	C241.513992,105.101639 242.932602,102.239265 245.081528,99.788612 
	C248.300476,96.117722 251.561600,92.315598 255.475204,89.501709 
	C257.128479,88.313004 260.936401,88.724045 262.908875,89.875008 
	C264.190582,90.622879 264.877441,94.377350 264.202118,96.171867 
	C259.560394,108.506432 254.471146,120.672180 249.575119,132.911926 
	C248.855331,134.711349 248.181686,136.581253 247.882370,138.480881 
	C247.628601,140.091385 247.946869,141.792023 248.012009,143.452789 
	C249.882797,143.326431 251.997971,143.723480 253.582306,142.983673 
	C260.659027,139.679169 264.052429,134.091660 266.276825,126.321800 
	C271.556274,107.880516 282.507050,93.631676 301.386230,86.878670 
	C306.189301,85.160629 310.724701,85.262589 314.406494,88.665268 
	C316.662292,87.241455 318.599487,85.437096 320.869934,84.774345 
	C322.607208,84.267227 325.470734,84.546364 326.533325,85.686905 
	C327.542511,86.770126 327.579742,89.779305 326.812988,91.334503 
	C320.926147,103.274544 317.204834,115.864189 315.215851,128.955643 
	C314.949646,130.707535 316.211945,133.101807 317.521332,134.482956 
	C318.051971,135.042725 321.151031,134.189835 322.142975,133.114288 
	C326.591522,128.290863 330.763000,123.204765 334.879242,118.088570 
	C335.624573,117.162170 335.876862,115.667397 335.963593,114.407951 
	C338.124908,83.015587 349.845764,55.287884 368.362549,30.221333 
	C370.870514,26.826241 373.875458,23.614519 377.221893,21.069525 
	C381.315002,17.956665 386.519318,17.590366 390.664215,20.510258 
	C394.585419,23.272524 394.160645,28.534569 392.730255,32.260529 
	C388.304504,43.788975 383.902100,55.466625 377.955841,66.239189 
	C368.360992,83.621742 357.542023,100.328583 347.141754,117.726349 
M283.947083,117.447632 
	C280.496796,124.159630 276.199829,130.619659 277.318054,140.042358 
	C293.552795,127.546486 303.951813,112.055000 311.585693,94.165718 
	C307.880463,95.294891 303.803955,96.167809 301.177826,98.604095 
	C295.105133,104.237778 289.734985,110.628738 283.947083,117.447632 
M363.476654,72.025711 
	C370.434174,58.639736 378.844818,45.851269 380.783691,30.375393 
	C365.581085,50.082817 353.560547,71.263466 348.837891,95.906799 
	C349.238434,96.117027 349.639008,96.327263 350.039551,96.537498 
	C354.383972,88.578964 358.728394,80.620438 363.476654,72.025711 
z"/>
<path fill="#1D77D2" opacity="1.000000" stroke="none" 
	d="
M464.752991,18.626030 
	C464.955231,19.310720 465.310516,19.966391 465.727722,20.008474 
	C470.194489,20.459047 474.808319,18.849131 478.994476,22.328066 
	C484.667053,27.042257 483.715179,33.389660 482.757660,38.914646 
	C479.659729,56.790298 472.353058,73.235260 462.145966,88.108932 
	C455.496582,97.798393 447.829437,106.901985 439.794922,115.498550 
	C430.689453,125.240967 419.232727,131.719879 405.924286,133.810577 
	C396.915802,135.225754 383.556061,127.845535 380.888550,113.697205 
	C378.226624,99.578377 382.389099,86.844803 387.401062,74.173012 
	C394.512543,56.193012 406.396851,41.553345 420.701904,28.943598 
	C431.435760,19.481829 443.540771,12.047510 458.233276,10.483093 
	C460.670013,10.223635 463.549530,11.374384 465.690155,12.722093 
	C466.349945,13.137502 465.236328,16.369682 464.752991,18.626030 
M435.542267,34.978626 
	C433.289001,36.897392 430.679077,38.526520 428.844635,40.785427 
	C421.204163,50.193844 412.831055,59.203087 406.567688,69.480705 
	C399.882629,80.450233 395.132721,92.669273 395.026642,105.982475 
	C394.927460,118.428040 402.108185,122.766876 413.234589,117.302444 
	C423.822815,112.102325 431.367554,103.589455 438.795746,94.783630 
	C449.538818,82.048019 457.981171,67.990051 464.052856,52.520245 
	C466.218506,47.002510 469.212738,41.538589 467.608704,35.196831 
	C460.123077,35.529438 447.662476,49.406960 445.354248,59.782448 
	C435.103088,55.151356 433.951172,49.282295 439.785461,41.030064 
	C444.263702,34.695889 450.300385,29.463564 455.421082,23.979923 
	C448.477936,25.669823 442.325287,30.185732 435.542267,34.978626 
z"/>
<path fill="#1D77D2" opacity="1.000000" stroke="none" 
	d="
M114.866104,58.001297 
	C118.252663,58.362869 121.251732,58.440865 124.085678,59.165024 
	C126.944008,59.895424 130.000626,61.512383 129.740036,64.846954 
	C129.530548,67.527824 128.371597,71.713463 126.549866,72.414574 
	C118.882294,75.365479 110.817848,77.296692 102.848053,79.410271 
	C102.514191,79.498817 101.100922,77.613327 101.202217,76.768822 
	C101.365425,75.408134 102.372169,74.148621 103.299530,72.291840 
	C93.091530,73.596870 84.509567,77.866096 76.703331,83.100731 
	C68.702248,88.466034 61.385571,94.948387 54.229485,101.448418 
	C47.932270,107.168304 49.092316,111.692062 57.366180,113.558754 
	C66.107697,115.530952 75.071266,116.505638 83.920586,118.017014 
	C92.528084,119.487106 100.659294,122.014992 107.486824,127.918556 
	C115.263634,134.642960 113.721397,144.839294 108.646088,151.811523 
	C98.078659,166.328598 82.742653,173.381821 66.059486,177.917435 
	C59.319862,179.749741 52.360027,181.402145 45.435692,181.718079 
	C40.248055,181.954773 34.674919,180.629593 29.796316,178.686798 
	C25.488577,176.971329 23.478165,172.786011 23.932238,167.654739 
	C24.355951,162.866531 27.371801,160.866791 31.307150,159.486115 
	C32.726971,164.243149 38.914467,167.467056 45.131798,166.927551 
	C56.473022,165.943420 67.414848,163.214493 77.316147,157.712341 
	C83.402344,154.330261 88.960289,149.777695 94.168907,145.097900 
	C99.415718,140.383774 98.340645,136.043884 91.487061,134.376007 
	C84.531807,132.683380 77.310135,132.087753 70.206886,131.000381 
	C60.593273,129.528732 50.917259,128.949188 42.025490,123.840202 
	C35.397747,120.032066 33.845104,110.753944 35.615761,104.846855 
	C39.294186,92.575249 48.656921,84.962212 58.584278,78.196312 
	C71.434837,69.438118 85.263580,62.512821 100.756325,59.649338 
	C105.254166,58.818012 109.853416,58.535309 114.866104,58.001297 
z"/>
<path fill="#1D77D2" opacity="1.000000" stroke="none" 
	d="
M140.806122,168.049347 
	C136.173035,168.507339 131.838867,169.575836 127.694229,169.075180 
	C120.297806,168.181686 118.196785,156.560776 119.101639,150.234909 
	C121.237350,135.303925 128.405121,122.851112 139.106033,112.522362 
	C142.794922,108.961792 147.373337,106.162247 151.913620,103.691765 
	C156.032700,101.450447 160.562271,100.699890 164.817184,104.155724 
	C165.700043,104.872780 167.264557,104.916000 168.527847,104.970634 
	C173.997528,105.207191 177.830154,109.562241 176.344040,115.002335 
	C174.302444,122.475853 172.278732,130.135269 168.831543,137.004547 
	C162.472549,149.676193 154.012817,160.866028 140.806122,168.049347 
M149.016998,118.486641 
	C139.529678,127.306435 132.651840,137.668793 130.780960,150.721420 
	C130.426605,153.193665 131.578857,155.881851 132.035934,158.470398 
	C134.271683,157.894974 136.877274,157.868744 138.682022,156.653336 
	C148.973175,149.722809 155.152084,139.513580 159.923828,128.417328 
	C161.668686,124.359863 162.506271,119.912239 163.865509,115.274887 
	C161.759720,115.101768 160.486679,115.343910 160.201355,114.920479 
	C157.044785,110.236000 154.598572,114.346359 152.031723,115.577744 
	C151.042160,116.052452 150.365662,117.179726 149.016998,118.486641 
z"/>
<path fill="#1E77D2" opacity="1.000000" stroke="none" 
	d="
M271.085663,76.391808 
	C268.386414,76.780785 264.763184,77.894608 263.802032,76.757759 
	C262.456848,75.166740 262.433380,71.731590 263.025085,69.382828 
	C264.212097,64.670921 266.758179,60.631424 272.276398,60.039230 
	C276.374115,59.599472 279.212524,62.705536 277.628540,66.442963 
	C276.151825,69.927292 273.489807,72.909271 271.085663,76.391808 
z"/>
<path fill="#000000" opacity="1.000000" stroke="none" 
	d="
M284.013489,117.080109 
	C289.734985,110.628738 295.105133,104.237778 301.177826,98.604095 
	C303.803955,96.167809 307.880463,95.294891 311.585693,94.165718 
	C303.951813,112.055000 293.552795,127.546486 277.318054,140.042358 
	C276.199829,130.619659 280.496796,124.159630 284.013489,117.080109 
z"/>
<path fill="#000000" opacity="1.000000" stroke="none" 
	d="
M363.274719,72.343811 
	C358.728394,80.620438 354.383972,88.578964 350.039551,96.537498 
	C349.639008,96.327263 349.238434,96.117027 348.837891,95.906799 
	C353.560547,71.263466 365.581085,50.082817 380.783691,30.375393 
	C378.844818,45.851269 370.434174,58.639736 363.274719,72.343811 
z"/>
<path fill="#000000" opacity="1.000000" stroke="none" 
	d="
M435.798889,34.724648 
	C442.325287,30.185732 448.477936,25.669823 455.421082,23.979923 
	C450.300385,29.463564 444.263702,34.695889 439.785461,41.030064 
	C433.951172,49.282295 435.103088,55.151356 445.354248,59.782448 
	C447.662476,49.406960 460.123077,35.529438 467.608704,35.196831 
	C469.212738,41.538589 466.218506,47.002510 464.052856,52.520245 
	C457.981171,67.990051 449.538818,82.048019 438.795746,94.783630 
	C431.367554,103.589455 423.822815,112.102325 413.234589,117.302444 
	C402.108185,122.766876 394.927460,118.428040 395.026642,105.982475 
	C395.132721,92.669273 399.882629,80.450233 406.567688,69.480705 
	C412.831055,59.203087 421.204163,50.193844 428.844635,40.785427 
	C430.679077,38.526520 433.289001,36.897392 435.798889,34.724648 
z"/>
<path fill="#000000" opacity="1.000000" stroke="none" 
	d="
M149.281769,118.248169 
	C150.365662,117.179726 151.042160,116.052452 152.031723,115.577744 
	C154.598572,114.346359 157.044785,110.236000 160.201355,114.920479 
	C160.486679,115.343910 161.759720,115.101768 163.865509,115.274887 
	C162.506271,119.912239 161.668686,124.359863 159.923828,128.417328 
	C155.152084,139.513580 148.973175,149.722809 138.682022,156.653336 
	C136.877274,157.868744 134.271683,157.894974 132.035934,158.470398 
	C131.578857,155.881851 130.426605,153.193665 130.780960,150.721420 
	C132.651840,137.668793 139.529678,127.306435 149.281769,118.248169 
z"/>
</svg>